<svg xmlns="http://www.w3.org/2000/svg" width="36" height="30.858" viewBox="0 0 36 30.858">
  <path id="heartbeat" d="M25.714,18h6.127a1.921,1.921,0,0,1-.2.211q-.1.09-.181.151l-.06.08L18.883,30.5a1.26,1.26,0,0,1-1.768,0L4.58,18.4a1.906,1.906,0,0,1-.422-.4h7.413a1.268,1.268,0,0,0,.794-.271,1.2,1.2,0,0,0,.452-.693l1.406-5.645,3.817,13.4a1.283,1.283,0,0,0,.462.663,1.253,1.253,0,0,0,.783.261,1.224,1.224,0,0,0,.763-.261,1.283,1.283,0,0,0,.462-.663l2.933-9.743,1.125,2.25a1.2,1.2,0,0,0,1.145.7ZM36,9.4a10.922,10.922,0,0,1-2.069,6.027H26.518l-2.23-4.44a1.27,1.27,0,0,0-1.245-.7,1.191,1.191,0,0,0-1.125.924l-2.592,8.638L15.388,6.067a1.264,1.264,0,0,0-.472-.663,1.3,1.3,0,0,0-.793-.261,1.255,1.255,0,0,0-1.225.964l-2.331,9.322h-8.5A10.922,10.922,0,0,1,0,9.4,9.215,9.215,0,0,1,2.551,2.491,9.664,9.664,0,0,1,9.6,0a8,8,0,0,1,2.541.432A10.319,10.319,0,0,1,14.555,1.6q1.116.733,1.918,1.376A18.929,18.929,0,0,1,18,4.339a18.485,18.485,0,0,1,1.527-1.366q.8-.643,1.919-1.376A10.293,10.293,0,0,1,23.857.432,8,8,0,0,1,26.4,0a9.662,9.662,0,0,1,7.051,2.491A9.215,9.215,0,0,1,36,9.4Z" fill="#fff"/>
</svg>
