<svg xmlns="http://www.w3.org/2000/svg" width="36" height="35.967" viewBox="0 0 36 35.967">
  <path id="house" d="M35.314,19.529a2.25,2.25,0,0,1-1.652.686,2.169,2.169,0,0,1-1.635-.7L31.5,19.02V33.715h3.375a1.125,1.125,0,0,1,0,2.25H1.16a1.081,1.081,0,0,1-.791-.334,1.1,1.1,0,0,1,0-1.582,1.081,1.081,0,0,1,.791-.334H4.5V19.02l-.527.492a2.169,2.169,0,0,1-1.635.7,2.25,2.25,0,0,1-1.652-.686A2.257,2.257,0,0,1,0,17.877a2.221,2.221,0,0,1,.668-1.635L16.277.668A2.227,2.227,0,0,1,18,0a2.227,2.227,0,0,1,1.723.668L35.3,16.242a2.169,2.169,0,0,1,.7,1.635,2.25,2.25,0,0,1-.686,1.652ZM15.75,23.59a1.141,1.141,0,0,0-1.125-1.125h-4.5A1.141,1.141,0,0,0,9,23.59V33.715h6.75Zm11.25,0a1.141,1.141,0,0,0-1.125-1.125h-4.5A1.141,1.141,0,0,0,20.25,23.59v4.5a1.141,1.141,0,0,0,1.125,1.125h4.5A1.141,1.141,0,0,0,27,28.09Z" transform="translate(0 0.002)" fill="#fff"/>
</svg>
